<?xml version="1.0" encoding="UTF-8" standalone="no"?>
<svg
   xmlns:dc="http://purl.org/dc/elements/1.1/"
   xmlns:cc="http://creativecommons.org/ns#"
   xmlns:rdf="http://www.w3.org/1999/02/22-rdf-syntax-ns#"
   xmlns:svg="http://www.w3.org/2000/svg"
   xmlns="http://www.w3.org/2000/svg"
   viewBox="0 0 450 450">
  <clipPath id="right-to-left">
    <rect x="450" y="0" width="450" height="450">
      <animate attributeName="x" values="450;0" dur="0.3s" fill="freeze" />
    </rect>
  </clipPath>
  <clipPath id="top-to-bottom">
    <rect x="0" y="-450" width="450" height="450">
      <animate attributeName="y" values="-450;0" begin="0.2s" dur="0.3s" fill="freeze" />
    </rect>
  </clipPath>
  <path id="s" fill="#004c8a"
     d="m 307.5719,6.8441281 c -16.77015,-1.6869957 -34.88998,-1.6517918 -49.94869,7.8666359 -17.96637,9.616023 -31.04985,26.857525 -37.41706,45.407877 -5.03665,14.673872 -9.19685,35.313407 -13.93976,52.903069 -5.26781,30.40202 -9.7426,60.96185 -13.59724,91.59754 -3.30282,17.93221 -2.91502,38.60551 -16.46206,52.46872 -5.17506,5.77083 -11.38391,9.94206 -18.813,12.22516 -14.38245,5.81159 -30.00176,7.69138 -45.36971,5.63765 -11.73924,-2.1157 -23.922603,-7.13071 -31.773799,-16.02208 -10.242959,-11.60003 -14.177238,-27.81793 -15.611244,-43.72183 -0.908778,-10.0789 7.24411,-37.688 10.180147,-17.79359 8.280579,23.62444 43.266956,29.09674 58.314136,9.03973 15.29128,-17.09514 6.84723,-46.78616 -14.5202,-54.15552 -16.21551,-9.22853 -34.898695,-6.82944 -52.490333,-4.76727 -24.377254,6.32409 -44.846928,28.54725 -45.98148,54.27408 -2.128174,23.20036 0.688992,48.55138 13.743043,68.29625 7.976935,14.98623 17.838142,23.75799 29.277805,32.74967 10.808404,9.05037 25.989165,12.50261 39.768495,15.1633 13.58065,1.82523 27.64497,1.52266 41.17558,-0.62703 18.59468,-3.87429 37.30475,-10.15261 52.89063,-21.17122 19.5576,-14.25109 31.44027,-37.0934 34.77779,-60.81299 5.63803,-31.57831 7.50055,-63.66703 13.00151,-95.26966 2.77703,-20.59259 5.54488,-41.51583 12.42121,-61.164498 8.40567,-13.134944 15.59326,-30.714595 32.91949,-33.059618 16.89261,3.67334 10.44176,21.407429 24.07989,37.734251 20.01797,14.858825 51.88252,-0.05788 53.30846,-24.938796 C 370.02919,40.553057 353.22989,25.470685 340.57993,19.145265 327.92996,12.819844 319.25482,8.0193752 307.5719,6.8441281 Z" />
  <path id="y" fill="#004c8a"
     d="m 408.29538,116.80226 c -20.19329,-0.95023 -22.68042,23.88057 -21.85074,38.9077 -0.7527,7.43246 1.31589,25.94205 0.43975,34.34903 -0.94617,9.0791 -1.81377,13.76578 -9.23377,17.3788 -11.87511,5.78236 -36.09388,12.88261 -57.75932,6.4093 -14.84557,-7.41668 -18.24766,-14.09023 -16.65488,-34.52359 -1.20833,-26.35715 6.06157,-42.10713 -1.19632,-59.31581 -11.73466,-14.25453 -34.13083,0.44138 -30.73528,17.0555 -1.15467,22.47274 -1.0782,45.06407 -0.35793,67.51867 4.44555,18.46838 11.02128,30.86049 27.40485,38.58789 17.80964,9.66733 39.299,7.25897 58.34335,5.74146 10.83787,-0.8636 31.54562,-14.05779 32.49454,2.82 1.0564,13.6004 2.78935,27.36457 3.72783,41.09534 1.14113,16.69589 1.10761,33.3424 -2.74523,49.58502 -4.57285,16.23239 -16.35554,32.18109 -30.90723,41.38264 -19.24028,12.1663 -44.15614,20.25148 -66.95271,13.46106 -12.38296,-5.21802 -25.47628,-12.35172 -30.6608,-25.49663 -9.30429,-13.0056 -4.34588,-30.16334 5.79196,-40.85817 13.52139,-4.39595 15.804,18.97049 30.26465,18.82377 19.76011,5.95383 42.63831,-8.79094 43.93633,-29.72904 -2.83651,-23.92985 -21.45212,-32.22757 -38.63243,-37.00101 -17.94528,-4.98599 -38.48483,2.79483 -54.50625,12.29258 -10.927,6.47771 -18.73093,17.57464 -25.19587,28.59036 -14.73736,19.97177 -11.6837,47.89841 0.027,68.5364 11.62617,25.4138 36.46506,42.36356 62.85335,49.53344 27.27592,5.7525 55.78112,-1.09029 80.53266,-12.86845 16.17762,-8.09525 29.33004,-21.02487 38.43931,-36.60463 14.19141,-15.81962 18.5951,-37.36772 21.84339,-57.71219 2.58035,-63.6097 0.44032,-127.36698 0.50759,-191.03464 -1.74477,-11.07822 -4.81574,-27.07719 -19.21775,-26.9248 z">
    <!--
    <animateTransform attributeName="transform" attributeType="XML" type="translate" values="0 0; 0 50" dur="0.2s" begin="0.5s" />
    <animateTransform attributeName="transform" attributeType="XML" type="translate" values="0 50; 300 50" dur="0.5s" begin="0.7s" fill="freeze" />
    -->
  </path>
</svg>
